<svg width="24" height="24" viewBox="0 0 24 24" fill="none" xmlns="http://www.w3.org/2000/svg">
<g clip-path="url(#clip0_4005_362)">
<rect width="24" height="24" rx="12" fill="white"/>
<rect width="24" height="24" fill="#F0F0F0"/>
<rect width="24" height="24" fill="#F0F0F0"/>
<rect width="24" height="24" fill="#FFDB4E"/>
<path d="M12.0017 11.8125C12.3631 11.8125 12.6719 11.6838 12.9281 11.4265C13.1844 11.1691 13.3125 10.8597 13.3125 10.4983C13.3125 10.1369 13.1838 9.82812 12.9265 9.57188C12.6691 9.31563 12.3597 9.1875 11.9983 9.1875C11.6369 9.1875 11.3281 9.31618 11.0719 9.57354C10.8156 9.83089 10.6875 10.1403 10.6875 10.5017C10.6875 10.8631 10.8162 11.1719 11.0735 11.4281C11.3309 11.6844 11.6403 11.8125 12.0017 11.8125ZM12 18.0188C13.6625 16.5063 14.8906 15.1344 15.6844 13.9031C16.4781 12.6719 16.875 11.5875 16.875 10.65C16.875 9.17763 16.4044 7.97203 15.4633 7.03322C14.5221 6.09441 13.3677 5.625 12 5.625C10.6323 5.625 9.47786 6.09441 8.53673 7.03322C7.59557 7.97203 7.125 9.17763 7.125 10.65C7.125 11.5875 7.53125 12.6719 8.34375 13.9031C9.15625 15.1344 10.375 16.5063 12 18.0188ZM12 19.5C9.9875 17.7875 8.48438 16.1969 7.49063 14.7281C6.49688 13.2594 6 11.9 6 10.65C6 8.775 6.60312 7.28125 7.80938 6.16875C9.01563 5.05625 10.4125 4.5 12 4.5C13.5875 4.5 14.9844 5.05625 16.1906 6.16875C17.3969 7.28125 18 8.775 18 10.65C18 11.9 17.5031 13.2594 16.5094 14.7281C15.5156 16.1969 14.0125 17.7875 12 19.5Z" fill="#292418"/>
</g>
<defs>
<clipPath id="clip0_4005_362">
<rect width="24" height="24" rx="12" fill="white"/>
</clipPath>
</defs>
</svg>
