<svg width="22" height="23" viewBox="0 0 22 23" fill="none" xmlns="http://www.w3.org/2000/svg">
<path d="M10.3813 16.0834H11.7563V12.2792H15.5833V10.9042H11.7563V6.91671H10.3813V10.9042H6.41668V12.2792H10.3813V16.0834ZM11.0061 20.6667C9.74211 20.6667 8.55427 20.4261 7.44256 19.9448C6.33086 19.4636 5.35869 18.8066 4.52605 17.974C3.69341 17.1414 3.03647 16.1686 2.55522 15.0558C2.07397 13.9429 1.83334 12.7539 1.83334 11.4886C1.83334 10.2233 2.07397 9.03423 2.55522 7.9214C3.03647 6.80855 3.69341 5.83962 4.52605 5.01462C5.35869 4.18962 6.33143 3.5365 7.44428 3.05525C8.55712 2.574 9.74618 2.33337 11.0115 2.33337C12.2768 2.33337 13.4658 2.574 14.5787 3.05525C15.6915 3.5365 16.6604 4.18962 17.4854 5.01462C18.3104 5.83962 18.9636 6.80976 19.4448 7.92504C19.9261 9.04032 20.1667 10.23 20.1667 11.4939C20.1667 12.7579 19.9261 13.9458 19.4448 15.0575C18.9636 16.1692 18.3104 17.14 17.4854 17.9698C16.6604 18.7996 15.6903 19.4566 14.575 19.9406C13.4597 20.4247 12.2701 20.6667 11.0061 20.6667ZM11.0115 19.2917C13.1733 19.2917 15.0104 18.5316 16.5229 17.0115C18.0354 15.4914 18.7917 13.6504 18.7917 11.4886C18.7917 9.32678 18.0369 7.48962 16.5272 5.97712C15.0176 4.46462 13.1752 3.70837 11 3.70837C8.84584 3.70837 7.00869 4.46319 5.48855 5.97282C3.96841 7.48246 3.20834 9.32487 3.20834 11.5C3.20834 13.6542 3.96841 15.4914 5.48855 17.0115C7.00869 18.5316 8.84966 19.2917 11.0115 19.2917Z" fill="#292418"/>
</svg>
