<svg width="20" height="20" viewBox="0 0 20 20" fill="none" xmlns="http://www.w3.org/2000/svg">
<rect width="20" height="20" fill="white"/>
<path d="M10.0025 13.125C10.9869 13.125 11.8229 12.7805 12.5104 12.0913C13.1979 11.4022 13.5417 10.5654 13.5417 9.58092C13.5417 8.59644 13.1971 7.76046 12.508 7.07296C11.8188 6.38546 10.982 6.04171 9.99754 6.04171C9.01307 6.04171 8.17709 6.38628 7.48959 7.07542C6.80209 7.76454 6.45834 8.60135 6.45834 9.58583C6.45834 10.5703 6.80291 11.4063 7.49204 12.0938C8.18117 12.7813 9.01797 13.125 10.0025 13.125ZM9.99511 11.9167C9.34559 11.9167 8.79514 11.6894 8.34375 11.2347C7.89236 10.7801 7.66667 10.228 7.66667 9.57848C7.66667 8.92896 7.89399 8.37851 8.34865 7.92712C8.80331 7.47574 9.3554 7.25004 10.0049 7.25004C10.6544 7.25004 11.2049 7.47737 11.6563 7.93202C12.1076 8.38669 12.3333 8.93877 12.3333 9.58827C12.3333 10.2378 12.106 10.7882 11.6514 11.2396C11.1967 11.691 10.6446 11.9167 9.99511 11.9167ZM10 15.8334C7.97222 15.8334 6.13889 15.257 4.5 14.1042C2.86111 12.9514 1.63889 11.4445 0.833336 9.58337C1.63889 7.72226 2.86111 6.21532 4.5 5.06254C6.13889 3.90976 7.97222 3.33337 10 3.33337C12.0278 3.33337 13.8611 3.90976 15.5 5.06254C17.1389 6.21532 18.3611 7.72226 19.1667 9.58337C18.3611 11.4445 17.1389 12.9514 15.5 14.1042C13.8611 15.257 12.0278 15.8334 10 15.8334ZM9.99648 14.5834C11.6794 14.5834 13.2257 14.1285 14.6354 13.2188C16.0451 12.3091 17.1181 11.0973 17.8542 9.58337C17.1181 8.06949 16.0463 6.85768 14.6389 5.94796C13.2316 5.03824 11.6864 4.58337 10.0035 4.58337C8.32062 4.58337 6.77431 5.03824 5.36459 5.94796C3.95486 6.85768 2.875 8.06949 2.125 9.58337C2.875 11.0973 3.95369 12.3091 5.36106 13.2188C6.76845 14.1285 8.31359 14.5834 9.99648 14.5834Z" fill="#94918B"/>
</svg>
