<svg width="16" height="16" viewBox="0 0 16 16" fill="none" xmlns="http://www.w3.org/2000/svg">
<path d="M8 15.34L6.84 14.3C5.49333 13.0867 4.38 12.04 3.5 11.16C2.62 10.28 1.92 9.49003 1.4 8.79003C0.88 8.09003 0.516667 7.4467 0.31 6.86003C0.103333 6.27337 0 5.67337 0 5.06003C0 3.8067 0.42 2.76003 1.26 1.92003C2.1 1.08003 3.14667 0.660034 4.4 0.660034C5.09333 0.660034 5.75333 0.806701 6.38 1.10003C7.00667 1.39337 7.54667 1.8067 8 2.34003C8.45333 1.8067 8.99333 1.39337 9.62 1.10003C10.2467 0.806701 10.9067 0.660034 11.6 0.660034C12.8533 0.660034 13.9 1.08003 14.74 1.92003C15.58 2.76003 16 3.8067 16 5.06003C16 5.67337 15.8967 6.27337 15.69 6.86003C15.4833 7.4467 15.12 8.09003 14.6 8.79003C14.08 9.49003 13.38 10.28 12.5 11.16C11.62 12.04 10.5067 13.0867 9.16 14.3L8 15.34ZM8 13.18C9.28 12.0334 10.3333 11.05 11.16 10.23C11.9867 9.41003 12.64 8.6967 13.12 8.09003C13.6 7.48337 13.9333 6.94337 14.12 6.47003C14.3067 5.9967 14.4 5.5267 14.4 5.06003C14.4 4.26003 14.1333 3.59337 13.6 3.06003C13.0667 2.5267 12.4 2.26003 11.6 2.26003C10.9733 2.26003 10.3933 2.4367 9.86 2.79003C9.32667 3.14337 8.96 3.59337 8.76 4.14003H7.24C7.04 3.59337 6.67333 3.14337 6.14 2.79003C5.60667 2.4367 5.02667 2.26003 4.4 2.26003C3.6 2.26003 2.93333 2.5267 2.4 3.06003C1.86667 3.59337 1.6 4.26003 1.6 5.06003C1.6 5.5267 1.69333 5.9967 1.88 6.47003C2.06667 6.94337 2.4 7.48337 2.88 8.09003C3.36 8.6967 4.01333 9.41003 4.84 10.23C5.66667 11.05 6.72 12.0334 8 13.18Z" fill="#94918B"/>
</svg>
