<svg width="22" height="21" viewBox="0 0 22 21" fill="none" xmlns="http://www.w3.org/2000/svg">
<path d="M8.63959 16.6687V15.3562H19.25V16.6687H8.63959ZM8.63959 11.1562V9.84375H19.25V11.1562H8.63959ZM8.63959 5.62188V4.30937H19.25V5.62188H8.63959ZM4.33125 17.4781C3.90271 17.4781 3.53585 17.3396 3.23068 17.0625C2.92551 16.7854 2.77292 16.4391 2.77292 16.0234C2.77292 15.6078 2.92188 15.2578 3.21979 14.9734C3.51771 14.6891 3.88438 14.5469 4.31979 14.5469C4.75521 14.5469 5.11806 14.6925 5.40834 14.9838C5.69861 15.2751 5.84375 15.6253 5.84375 16.0344C5.84375 16.4314 5.69566 16.7713 5.39947 17.054C5.10326 17.3368 4.74719 17.4781 4.33125 17.4781ZM4.33125 11.9656C3.90271 11.9656 3.53585 11.8221 3.23068 11.5351C2.92551 11.2481 2.77292 10.9031 2.77292 10.5C2.77292 10.0969 2.92551 9.75191 3.23068 9.4649C3.53585 9.17788 3.90271 9.03437 4.33125 9.03437C4.74719 9.03437 5.10326 9.17788 5.39947 9.4649C5.69566 9.75191 5.84375 10.0969 5.84375 10.5C5.84375 10.9031 5.69566 11.2481 5.39947 11.5351C5.10326 11.8221 4.74719 11.9656 4.33125 11.9656ZM4.30834 6.43125C3.8861 6.43125 3.52464 6.28774 3.22394 6.00073C2.92326 5.71371 2.77292 5.36868 2.77292 4.96562C2.77292 4.56257 2.92326 4.21754 3.22394 3.93052C3.52464 3.64351 3.8861 3.5 4.30834 3.5C4.73057 3.5 5.09203 3.64351 5.39273 3.93052C5.69341 4.21754 5.84375 4.56257 5.84375 4.96562C5.84375 5.36868 5.69341 5.71371 5.39273 6.00073C5.09203 6.28774 4.73057 6.43125 4.30834 6.43125Z" fill="#292418"/>
</svg>
