<svg width="22" height="21" viewBox="0 0 22 21" fill="none" xmlns="http://www.w3.org/2000/svg">
<path d="M11.002 10.2812C11.4437 10.2812 11.8212 10.1311 12.1344 9.83087C12.4476 9.53062 12.6042 9.16969 12.6042 8.74805C12.6042 8.32643 12.4469 7.96615 12.1323 7.66719C11.8178 7.36823 11.4397 7.21875 10.998 7.21875C10.5563 7.21875 10.1788 7.36888 9.86561 7.66913C9.55242 7.96938 9.39582 8.33031 9.39582 8.75195C9.39582 9.17357 9.5531 9.53385 9.86765 9.83281C10.1822 10.1318 10.5603 10.2812 11.002 10.2812ZM11 17.5219C13.0319 15.7573 14.533 14.1568 15.5031 12.7203C16.4733 11.2839 16.9583 10.0188 16.9583 8.925C16.9583 7.20723 16.3832 5.8007 15.2329 4.70542C14.0826 3.61014 12.6716 3.0625 11 3.0625C9.32834 3.0625 7.91738 3.61014 6.7671 4.70542C5.6168 5.8007 5.04166 7.20723 5.04166 8.925C5.04166 10.0188 5.53818 11.2839 6.53124 12.7203C7.5243 14.1568 9.01388 15.7573 11 17.5219ZM11 19.25C8.54027 17.2521 6.70311 15.3964 5.48853 13.6828C4.27395 11.9693 3.66666 10.3833 3.66666 8.925C3.66666 6.7375 4.40381 4.99479 5.87811 3.69687C7.35242 2.39896 9.05971 1.75 11 1.75C12.9403 1.75 14.6476 2.39896 16.1219 3.69687C17.5962 4.99479 18.3333 6.7375 18.3333 8.925C18.3333 10.3833 17.726 11.9693 16.5114 13.6828C15.2969 15.3964 13.4597 17.2521 11 19.25Z" fill="#292418"/>
</svg>
