<svg width="22" height="23" viewBox="0 0 22 23" fill="none" xmlns="http://www.w3.org/2000/svg">
<path d="M5.08751 16.6563C6.05001 15.9841 7.00487 15.4684 7.95209 15.1094C8.89932 14.7504 9.91529 14.5709 11 14.5709C12.0847 14.5709 13.1045 14.7504 14.0594 15.1094C15.0142 15.4684 15.9729 15.9841 16.9354 16.6563C17.6076 15.8313 18.0851 14.9987 18.3677 14.1584C18.6504 13.3181 18.7917 12.432 18.7917 11.5C18.7917 9.28476 18.0469 7.43233 16.5573 5.94275C15.0677 4.45317 13.2153 3.70837 11 3.70837C8.78473 3.70837 6.9323 4.45317 5.44272 5.94275C3.95314 7.43233 3.20834 9.28476 3.20834 11.5C3.20834 12.432 3.35348 13.3181 3.64376 14.1584C3.93404 14.9987 4.41529 15.8313 5.08751 16.6563ZM10.9957 12.1875C10.1125 12.1875 9.36911 11.8844 8.76563 11.2781C8.16216 10.6718 7.86043 9.92696 7.86043 9.04369C7.86043 8.16043 8.16358 7.41705 8.7699 6.81358C9.37621 6.21011 10.121 5.90837 11.0043 5.90837C11.8875 5.90837 12.6309 6.21153 13.2344 6.81784C13.8379 7.42416 14.1396 8.16895 14.1396 9.05222C14.1396 9.93549 13.8364 10.6789 13.2301 11.2823C12.6238 11.8858 11.879 12.1875 10.9957 12.1875ZM11.0107 20.6667C9.75081 20.6667 8.5632 20.4261 7.44793 19.9448C6.33265 19.4636 5.35869 18.8066 4.52605 17.974C3.69341 17.1414 3.03647 16.1692 2.55522 15.0575C2.07397 13.9458 1.83334 12.7579 1.83334 11.4939C1.83334 10.23 2.07397 9.04414 2.55522 7.9365C3.03647 6.82886 3.69341 5.85872 4.52605 5.02608C5.35869 4.19344 6.33086 3.5365 7.44256 3.05525C8.55427 2.574 9.74211 2.33337 11.0061 2.33337C12.2701 2.33337 13.4559 2.574 14.5636 3.05525C15.6712 3.5365 16.6413 4.19344 17.474 5.02608C18.3066 5.85872 18.9636 6.8291 19.4448 7.93723C19.9261 9.04536 20.1667 10.2294 20.1667 11.4893C20.1667 12.7492 19.9261 13.9368 19.4448 15.0521C18.9636 16.1674 18.3066 17.1414 17.474 17.974C16.6413 18.8066 15.6709 19.4636 14.5628 19.9448C13.4547 20.4261 12.2707 20.6667 11.0107 20.6667ZM11 19.2917C11.8403 19.2917 12.6615 19.1695 13.4636 18.925C14.2656 18.6806 15.0563 18.2528 15.8354 17.6417C15.0563 17.0917 14.2618 16.6716 13.4521 16.3813C12.6424 16.091 11.825 15.9459 11 15.9459C10.175 15.9459 9.35765 16.091 8.54793 16.3813C7.7382 16.6716 6.94376 17.0917 6.16459 17.6417C6.94376 18.2528 7.73439 18.6806 8.53647 18.925C9.33855 19.1695 10.1597 19.2917 11 19.2917ZM11 10.8125C11.5195 10.8125 11.9434 10.6483 12.2719 10.3198C12.6004 9.99136 12.7646 9.5674 12.7646 9.04796C12.7646 8.52851 12.6004 8.10455 12.2719 7.77608C11.9434 7.44761 11.5195 7.28337 11 7.28337C10.4806 7.28337 10.0566 7.44761 9.72813 7.77608C9.39966 8.10455 9.23543 8.52851 9.23543 9.04796C9.23543 9.5674 9.39966 9.99136 9.72813 10.3198C10.0566 10.6483 10.4806 10.8125 11 10.8125Z" fill="#292418"/>
</svg>
