<svg width="18" height="18" viewBox="0 0 18 18" fill="none" xmlns="http://www.w3.org/2000/svg">
<rect width="18" height="18" fill="white"/>
<path d="M2.81254 16.6874V5.48074C2.81254 5.10189 2.94379 4.78121 3.20629 4.51871C3.46879 4.25621 3.78946 4.12496 4.16829 4.12496H11.2067C11.5856 4.12496 11.9062 4.25621 12.1687 4.51871C12.4312 4.78121 12.5625 5.10189 12.5625 5.48074V16.6874L7.68752 14.5961L2.81254 16.6874ZM3.93752 14.9624L7.68752 13.3499L11.4375 14.9624V5.48074C11.4375 5.42304 11.4135 5.37014 11.3654 5.32206C11.3173 5.27398 11.2644 5.24994 11.2067 5.24994H4.16829C4.11061 5.24994 4.05772 5.27398 4.00963 5.32206C3.96156 5.37014 3.93752 5.42304 3.93752 5.48074V14.9624ZM14.0625 14.4374V2.85576C14.0625 2.79806 14.0384 2.74517 13.9904 2.69709C13.9423 2.64901 13.8894 2.62496 13.8317 2.62496H5.06254V1.5H13.8317C14.2105 1.5 14.5312 1.63125 14.7937 1.89375C15.0562 2.15625 15.1875 2.47692 15.1875 2.85576V14.4374H14.0625Z" fill="#94918B"/>
</svg>
