<svg width="13" height="14" viewBox="0 0 13 14" fill="none" xmlns="http://www.w3.org/2000/svg">
<path d="M10.9445 14C10.3736 14 9.88823 13.8055 9.48856 13.4164C9.08888 13.0274 8.88904 12.555 8.88904 11.9992C8.88904 11.9214 8.89806 11.8262 8.91609 11.7137C8.93412 11.6012 8.96117 11.5 8.99723 11.41L3.53398 8.33C3.35368 8.52833 3.1313 8.68875 2.86685 8.81125C2.6024 8.93375 2.33195 8.995 2.05548 8.995C1.48451 8.995 0.999191 8.80104 0.599515 8.41313C0.199838 8.02521 0 7.55417 0 7C0 6.44583 0.199838 5.97479 0.599515 5.58687C0.999191 5.19896 1.48451 5.005 2.05548 5.005C2.33195 5.005 2.59639 5.0575 2.84882 5.1625C3.10125 5.2675 3.32963 5.41917 3.53398 5.6175L8.99723 2.5725C8.96117 2.49001 8.93412 2.39719 8.91609 2.29406C8.89806 2.19094 8.88904 2.09125 8.88904 1.995C8.88904 1.44083 9.08888 0.969792 9.48856 0.581875C9.88823 0.193958 10.3736 0 10.9445 0C11.5155 0 12.0008 0.193958 12.4005 0.581875C12.8002 0.969792 13 1.44083 13 1.995C13 2.54917 12.8002 3.02021 12.4005 3.40812C12.0008 3.79604 11.5155 3.99 10.9445 3.99C10.6638 3.99 10.3953 3.94625 10.139 3.85875C9.88266 3.77125 9.66436 3.62833 9.48405 3.43L4.0208 6.37C4.04485 6.46333 4.06588 6.57125 4.08391 6.69375C4.10194 6.81625 4.11096 6.91974 4.11096 7.00422C4.11096 7.08871 4.10194 7.17621 4.08391 7.26672C4.06588 7.35724 4.04485 7.44917 4.0208 7.5425L9.48405 10.5525C9.66436 10.3892 9.87471 10.2579 10.1151 10.1587C10.3555 10.0596 10.632 10.01 10.9445 10.01C11.5155 10.01 12.0008 10.204 12.4005 10.5919C12.8002 10.9798 13 11.4508 13 12.005C13 12.5592 12.8002 13.0302 12.4005 13.4181C12.0008 13.806 11.5155 14 10.9445 14ZM10.9452 2.94C11.2212 2.94 11.4524 2.84938 11.6387 2.66814C11.825 2.4869 11.9182 2.26231 11.9182 1.99439C11.9182 1.72646 11.8248 1.50208 11.6381 1.32125C11.4513 1.14042 11.2199 1.05 10.9439 1.05C10.6678 1.05 10.4367 1.14062 10.2503 1.32186C10.064 1.5031 9.97087 1.72769 9.97087 1.99561C9.97087 2.26354 10.0642 2.48792 10.251 2.66875C10.4377 2.84958 10.6691 2.94 10.9452 2.94ZM2.05611 7.945C2.33216 7.945 2.56334 7.85438 2.74965 7.67314C2.93597 7.4919 3.02913 7.26731 3.02913 6.99939C3.02913 6.73146 2.93576 6.50708 2.74902 6.32625C2.56229 6.14542 2.33089 6.055 2.05485 6.055C1.7788 6.055 1.54762 6.14562 1.3613 6.32686C1.17499 6.5081 1.08183 6.73269 1.08183 7.00061C1.08183 7.26854 1.1752 7.49292 1.36193 7.67375C1.54867 7.85458 1.78006 7.945 2.05611 7.945ZM10.9452 12.95C11.2212 12.95 11.4524 12.8594 11.6387 12.6781C11.825 12.4969 11.9182 12.2723 11.9182 12.0044C11.9182 11.7365 11.8248 11.5121 11.6381 11.3313C11.4513 11.1504 11.2199 11.06 10.9439 11.06C10.6678 11.06 10.4367 11.1506 10.2503 11.3319C10.064 11.5131 9.97087 11.7377 9.97087 12.0056C9.97087 12.2735 10.0642 12.4979 10.251 12.6788C10.4377 12.8596 10.6691 12.95 10.9452 12.95Z" fill="#94918B"/>
</svg>
