<svg width="24" height="24" viewBox="0 0 24 24" fill="none" xmlns="http://www.w3.org/2000/svg">
<path fill-rule="evenodd" clip-rule="evenodd" d="M12 22.5C17.799 22.5 22.5 17.799 22.5 12C22.5 6.20101 17.799 1.5 12 1.5C6.20101 1.5 1.5 6.20101 1.5 12C1.5 17.799 6.20101 22.5 12 22.5ZM12 24C18.6274 24 24 18.6274 24 12C24 5.37258 18.6274 0 12 0C5.37258 0 0 5.37258 0 12C0 18.6274 5.37258 24 12 24Z" fill="white"/>
<path d="M18 11.8455C18 15.0739 15.3628 17.6909 12.1091 17.6909C11.0761 17.6909 10.1057 17.4269 9.26147 16.9636L6 18L7.06333 14.8637C6.52693 13.9829 6.218 12.9499 6.218 11.8455C6.218 8.61707 8.85547 6 12.1091 6C15.3631 6 18 8.61707 18 11.8455ZM12.1091 6.93093C9.37787 6.93093 7.15627 9.1356 7.15627 11.8455C7.15627 12.9208 7.5068 13.9167 8.09973 14.7268L7.48093 16.552L9.38427 15.9471C10.1663 16.4605 11.1031 16.76 12.1092 16.76C14.84 16.76 17.062 14.5556 17.062 11.8457C17.062 9.13587 14.8401 6.93093 12.1091 6.93093ZM15.0839 13.1917C15.0475 13.1321 14.9513 13.0961 14.8071 13.0245C14.6625 12.9529 13.9524 12.6061 13.8204 12.5585C13.688 12.5108 13.5915 12.4868 13.4953 12.6301C13.3992 12.7736 13.1224 13.0961 13.038 13.1917C12.9537 13.2876 12.8696 13.2996 12.7251 13.2279C12.5808 13.1563 12.1156 13.0048 11.564 12.5168C11.1348 12.1371 10.8449 11.6683 10.7607 11.5247C10.6765 11.3813 10.7519 11.3039 10.824 11.2325C10.8891 11.1683 10.9685 11.0652 11.0407 10.9816C11.1131 10.8979 11.1371 10.8383 11.1849 10.7425C11.2333 10.6469 11.2092 10.5633 11.1729 10.4915C11.1369 10.4199 10.8479 9.7148 10.7276 9.42787C10.6073 9.1412 10.4872 9.18893 10.4028 9.18893C10.3187 9.18893 10.2223 9.17693 10.126 9.17693C10.0297 9.17693 9.8732 9.2128 9.7408 9.35613C9.60853 9.4996 9.2356 9.84627 9.2356 10.5512C9.2356 11.2563 9.7528 11.9375 9.8252 12.0329C9.89733 12.1284 10.8239 13.6223 12.2919 14.196C13.76 14.7695 13.76 14.5781 14.0248 14.5541C14.2893 14.5303 14.8789 14.2076 14.9997 13.8732C15.1197 13.5383 15.1197 13.2515 15.0839 13.1917Z" fill="white"/>
</svg>
