<svg width="24" height="24" viewBox="0 0 24 24" fill="none" xmlns="http://www.w3.org/2000/svg">
<path fill-rule="evenodd" clip-rule="evenodd" d="M12 22.5C17.799 22.5 22.5 17.799 22.5 12C22.5 6.20101 17.799 1.5 12 1.5C6.20101 1.5 1.5 6.20101 1.5 12C1.5 17.799 6.20101 22.5 12 22.5ZM12 24C18.6274 24 24 18.6274 24 12C24 5.37258 18.6274 0 12 0C5.37258 0 0 5.37258 0 12C0 18.6274 5.37258 24 12 24Z" fill="white"/>
<path d="M7.2 16.8C6.87 16.8 6.5875 16.6825 6.3525 16.4475C6.1175 16.2125 6 15.93 6 15.6V8.39995C6 8.06995 6.1175 7.78745 6.3525 7.55245C6.5875 7.31745 6.87 7.19995 7.2 7.19995H16.8C17.13 7.19995 17.4125 7.31745 17.6475 7.55245C17.8825 7.78745 18 8.06995 18 8.39995V15.6C18 15.93 17.8825 16.2125 17.6475 16.4475C17.4125 16.6825 17.13 16.8 16.8 16.8H7.2ZM12 12.6L7.2 9.59995V15.6H16.8V9.59995L12 12.6ZM12 11.4L16.8 8.39995H7.2L12 11.4ZM7.2 9.59995V8.39995V15.6V9.59995Z" fill="white"/>
</svg>
