<svg width="24" height="24" viewBox="0 0 24 24" fill="none" xmlns="http://www.w3.org/2000/svg">
<path fill-rule="evenodd" clip-rule="evenodd" d="M12 22.5C17.799 22.5 22.5 17.799 22.5 12C22.5 6.20101 17.799 1.5 12 1.5C6.20101 1.5 1.5 6.20101 1.5 12C1.5 17.799 6.20101 22.5 12 22.5ZM12 24C18.6274 24 24 18.6274 24 12C24 5.37258 18.6274 0 12 0C5.37258 0 0 5.37258 0 12C0 18.6274 5.37258 24 12 24Z" fill="white"/>
<path d="M6.18124 11.6229C7.40888 10.9467 8.77925 10.3823 10.0597 9.81502C12.2625 8.88589 14.474 7.97286 16.7079 7.12285C17.1425 6.97802 17.9234 6.83641 18 7.48048C17.9581 8.39219 17.7856 9.29857 17.6673 10.2049C17.367 12.1981 17.0199 14.1845 16.6814 16.1712C16.5648 16.8329 15.7358 17.1755 15.2054 16.752C13.9307 15.891 12.6462 15.0383 11.3877 14.1573C10.9755 13.7384 11.3578 13.1369 11.7259 12.8378C12.7758 11.8031 13.8893 10.924 14.8843 9.83589C15.1527 9.18776 14.3596 9.73398 14.0981 9.90136C12.6607 10.8918 11.2586 11.9428 9.74323 12.8133C8.96917 13.2394 8.067 12.8752 7.29329 12.6375C6.59958 12.3503 5.58309 12.0608 6.18124 11.6229Z" fill="white"/>
</svg>
